HIERARCHY
ROOT SimulationBone
{
	OFFSET 0.000000 0.000000 0.000000
	CHANNELS 6 Xposition Yposition Zposition Zrotation Yrotation Xrotation 
	JOINT Hips
	{
		OFFSET 0.000000 0.000000 0.000000
		CHANNELS 6 Xposition Yposition Zposition Zrotation Yrotation Xrotation 
		JOINT LeftUpLeg
		{
			OFFSET 0.103456 1.857840 10.548501
			CHANNELS 3 Zrotation Yrotation Xrotation
			JOINT LeftLeg
			{
				OFFSET 43.499992 -0.000038 -0.000006
				CHANNELS 3 Zrotation Yrotation Xrotation
				JOINT LeftFoot
				{
					OFFSET 42.372196 0.000031 0.000002
					CHANNELS 3 Zrotation Yrotation Xrotation
					JOINT LeftToe
					{
						OFFSET 17.299974 -0.000010 -0.000017
						CHANNELS 3 Zrotation Yrotation Xrotation
						End Site
						{
							OFFSET 0.000000 0.000000 0.000000
						}
					}
				}
			}
		}
		JOINT RightUpLeg
		{
			OFFSET 0.103462 1.857831 -10.548510
			CHANNELS 3 Zrotation Yrotation Xrotation
			JOINT RightLeg
			{
				OFFSET 43.500046 -0.000015 0.000008
				CHANNELS 3 Zrotation Yrotation Xrotation
				JOINT RightFoot
				{
					OFFSET 42.372265 -0.000015 0.000004
					CHANNELS 3 Zrotation Yrotation Xrotation
					JOINT RightToe
					{
						OFFSET 17.299995 -0.000004 0.000013
						CHANNELS 3 Zrotation Yrotation Xrotation
						End Site
						{
							OFFSET 0.000000 0.000000 0.000000
						}
					}
				}
			}
		}
		JOINT Spine
		{
			OFFSET 6.901966 -2.603716 -0.000002
			CHANNELS 3 Zrotation Yrotation Xrotation
			JOINT Spine1
			{
				OFFSET 12.588102 -0.000001 0.000005
				CHANNELS 3 Zrotation Yrotation Xrotation
				JOINT Spine2
				{
					OFFSET 12.343201 -0.000023 -0.000011
					CHANNELS 3 Zrotation Yrotation Xrotation
					JOINT Neck
					{
						OFFSET 25.832901 0.000011 0.000007
						CHANNELS 3 Zrotation Yrotation Xrotation
						JOINT Head
						{
							OFFSET 11.766600 -0.000002 0.000002
							CHANNELS 3 Zrotation Yrotation Xrotation
							End Site
							{
								OFFSET 0.000000 0.000000 0.000000
							}
						}
					}
					JOINT LeftShoulder
					{
						OFFSET 19.745907 -1.480350 6.000119
						CHANNELS 3 Zrotation Yrotation Xrotation
						JOINT LeftArm
						{
							OFFSET 11.284122 -0.000013 -0.000023
							CHANNELS 3 Zrotation Yrotation Xrotation
							JOINT LeftForeArm
							{
								OFFSET 33.000057 0.000005 0.000025
								CHANNELS 3 Zrotation Yrotation Xrotation
								JOINT LeftHand
								{
									OFFSET 25.199997 0.000020 0.000019
									CHANNELS 3 Zrotation Yrotation Xrotation
									End Site
									{
										OFFSET 0.000000 0.000000 0.000000
									}
								}
							}
						}
					}
					JOINT RightShoulder
					{
						OFFSET 19.746096 -1.480352 -6.000062
						CHANNELS 3 Zrotation Yrotation Xrotation
						JOINT RightArm
						{
							OFFSET 11.284150 0.000007 -0.000012
							CHANNELS 3 Zrotation Yrotation Xrotation
							JOINT RightForeArm
							{
								OFFSET 33.000092 0.000019 0.000012
								CHANNELS 3 Zrotation Yrotation Xrotation
								JOINT RightHand
								{
									OFFSET 25.199797 0.000118 0.000427
									CHANNELS 3 Zrotation Yrotation Xrotation
									End Site
									{
										OFFSET 0.000000 0.000000 0.000000
									}
								}
							}
						}
					}
				}
			}
		}
	}
}
MOTION
Frames: 15
Frame Time: 0.016667
358.171195 0.000000 162.878518 0.000000 216.140236 0.000000 -7.116567 89.921288 0.169670 79.414612 -1.643368 -177.091841 156.359641 -1.645490 168.043882 -34.546105 4.167610 1.029796 92.552962 -1.828889 -7.777168 21.454560 0.003116 0.000018 147.816972 9.767506 -175.238666 -74.721722 -0.792359 -0.423177 79.215809 1.863640 5.944636 21.454550 -0.003092 0.000000 7.166783 -1.185163 -0.624829 4.334912 -2.346261 -1.293449 4.016610 -2.354167 -1.279257 3.047206 -4.009834 -1.061094 -30.386490 9.261048 -6.588680 -179.386053 -80.528436 -2.124954 12.552433 52.346535 27.297717 -44.567219 -15.707492 1.659275 5.237026 -0.471191 6.578909 -161.487990 82.026213 20.304001 17.069910 -65.567436 -39.719256 -53.113285 20.699780 -2.237374 2.860835 10.080077 -14.298540 
357.442883 0.000000 163.696888 0.000000 216.044127 0.000000 -7.160656 90.099325 0.093468 79.325020 -1.834782 -177.944220 157.482846 -1.468213 167.529024 -33.782845 4.093545 0.754310 92.614383 -1.647041 -7.867708 21.454557 0.003112 0.000018 145.552099 9.047149 -175.222067 -74.923570 -0.351884 -1.525999 79.482805 2.766017 6.530513 21.454547 -0.003089 -0.000000 7.132653 -1.219522 -0.696889 4.268554 -2.412721 -1.438163 3.950266 -2.421488 -1.423558 3.158337 -3.234688 -0.810152 -30.274023 8.629731 -5.834278 177.767000 -81.034778 0.753160 11.796150 52.722245 25.783278 -44.686536 -16.065358 1.685716 5.133603 -1.260305 6.251007 -161.463221 82.151518 20.327781 16.468921 -65.221377 -37.563357 -56.531720 20.431371 -2.339694 2.772474 10.206453 -16.952664 
356.664351 0.000000 164.507384 0.000000 215.943694 0.000000 -7.209440 90.279739 -0.004672 79.233963 -2.002025 -178.706281 158.590149 -1.244008 167.280376 -33.024677 3.954681 0.391358 92.572756 -1.411094 -7.965431 21.454557 0.003109 0.000017 143.440255 8.376007 -175.197972 -74.488430 0.393941 -2.178082 79.505156 3.291611 6.884538 21.454551 -0.003091 0.000000 7.103394 -1.230556 -0.778333 4.211881 -2.432214 -1.600847 3.893614 -2.441966 -1.586122 3.234380 -2.581757 -0.512738 -30.140476 7.940705 -5.029066 174.291974 -81.244642 4.271025 11.233085 52.952764 23.873672 -45.259759 -16.258101 1.716018 5.211185 -2.088971 5.953337 -161.267074 82.374463 20.523925 16.141438 -64.965479 -35.618383 -59.748923 19.920180 -2.426134 2.176190 10.395112 -18.340713 
355.837392 0.000000 165.310193 0.000000 215.838876 0.000000 -7.262853 90.441151 -0.122352 79.147375 -2.169361 -179.390324 159.682263 -0.965552 167.184053 -32.293257 3.802968 -0.016898 92.490279 -1.148190 -8.072393 21.454557 0.003107 0.000016 141.496203 7.732851 -175.138032 -73.491404 1.228820 -2.511042 79.409979 3.561696 7.095872 21.454556 -0.003094 0.000000 7.080783 -1.229338 -0.867171 4.168492 -2.426919 -1.778002 3.850252 -2.437748 -1.763310 3.234038 -2.020625 -0.174114 -29.942869 7.254344 -4.199749 170.693393 -81.284140 7.916650 10.829567 53.121593 21.820292 -46.180365 -16.377252 1.752147 5.251277 -2.710702 5.699529 -160.979762 82.611689 20.811971 15.956762 -64.714262 -33.795335 -62.746314 19.183581 -2.491198 1.274601 10.616192 -18.852571 
354.963797 0.000000 166.105508 0.000000 215.729612 0.000000 -7.320823 90.562180 -0.257170 79.071804 -2.360968 179.991378 160.759266 -0.621003 167.126601 -31.611002 3.688902 -0.426903 92.429206 -0.885272 -8.190139 21.454558 0.003106 0.000016 139.734605 7.098403 -175.012601 -72.005247 1.929242 -2.661225 79.329108 3.695291 7.257377 21.454560 -0.003096 0.000000 7.066623 -1.226930 -0.961400 4.142094 -2.418975 -1.966078 3.823887 -2.430943 -1.951435 3.116044 -1.520250 0.199966 -29.635930 6.629876 -3.373387 167.315864 -81.292153 11.337947 10.543838 53.313805 19.866982 -47.342106 -16.514340 1.796419 5.033004 -2.880964 5.508043 -160.699923 82.779971 21.093032 15.804517 -64.378274 -32.024488 -65.506882 18.238418 -2.534572 0.270315 10.851560 -18.876599 
354.045359 0.000000 166.893518 0.000000 215.615841 0.000000 -7.381297 90.627039 -0.403897 79.008231 -2.590338 179.435133 161.816282 -0.204772 167.026526 -30.997377 3.649230 -0.803282 92.437853 -0.643661 -8.320766 21.454558 0.003105 0.000017 138.158090 6.471747 -174.813822 -70.092726 2.339671 -2.748065 79.344047 3.788831 7.442710 21.454558 -0.003094 -0.000000 7.061229 -1.230776 -1.059907 4.133429 -2.423265 -2.163127 3.815262 -2.436417 -2.148455 2.849162 -1.048750 0.598224 -29.193879 6.098480 -2.570242 164.231931 -81.377730 14.457217 10.332299 53.587157 18.217045 -48.647912 -16.734967 1.851995 4.407376 -2.518187 5.381562 -160.476578 82.831640 21.318235 15.631421 -63.907830 -30.292327 -68.018120 17.122130 -2.559338 -0.621986 11.055295 -18.777509 
353.083869 0.000000 167.674413 0.000000 215.497500 0.000000 -7.434299 90.642303 -0.546019 78.933447 -2.828557 178.971573 162.832584 0.248195 166.927802 -30.457097 3.670542 -1.147690 92.508505 -0.423026 -8.470743 21.454558 0.003105 0.000018 136.722778 5.918394 -174.625179 -67.768269 2.575611 -2.775332 79.327585 3.851372 7.645332 21.454553 -0.003091 -0.000000 7.058830 -1.233888 -1.165158 4.130880 -2.425802 -2.373699 3.812768 -2.440218 -2.359009 2.441742 -0.573394 0.988871 -28.677778 5.583533 -1.783567 161.204128 -81.498608 17.516122 10.176299 53.890713 16.940979 -50.033488 -17.001299 1.914740 3.516485 -2.189310 5.272238 -160.072939 82.860144 21.726110 15.541405 -63.424192 -28.743559 -70.282099 15.956932 -2.570110 -1.133996 11.086993 -18.831064 
352.081121 0.000000 168.448384 0.000000 215.374527 0.000000 -7.472319 90.621042 -0.669747 78.825555 -3.039355 178.625780 163.794440 0.689391 166.879037 -29.984808 3.725477 -1.464375 92.618495 -0.221530 -8.639962 21.454558 0.003105 0.000017 135.412112 5.482209 -174.545830 -65.013001 2.796484 -2.694020 79.143642 3.852179 7.832920 21.454547 -0.003090 0.000002 7.054417 -1.227444 -1.276495 4.124194 -2.409064 -2.596040 3.806155 -2.424824 -2.581452 1.927661 -0.055533 1.337208 -28.173367 4.990790 -1.000165 158.033414 -81.589955 20.718989 10.064888 54.168856 16.027210 -51.464331 -17.243685 1.977701 2.569603 -2.402286 5.170371 -159.317013 82.954670 22.489386 15.648883 -63.045861 -27.511824 -72.301378 14.863761 -2.577557 -1.130924 10.862282 -19.204846 
351.038905 0.000000 169.215621 0.000000 215.246856 0.000000 -7.506125 90.579933 -0.783146 78.694936 -3.198701 178.365726 164.727661 1.066303 166.827384 -29.550645 3.779656 -1.728884 92.741701 -0.052876 -8.796895 21.454560 0.003103 0.000016 134.358440 5.067398 -174.638511 -61.723476 3.071747 -2.389210 78.830265 3.684862 7.952032 21.454545 -0.003091 0.000003 7.052224 -1.209638 -1.377167 4.121402 -2.369943 -2.796683 3.803437 -2.386921 -2.782331 1.403946 0.567833 1.617704 -27.769697 4.257896 -0.206299 154.597873 -81.669486 24.188014 9.962788 54.457506 15.241754 -52.995331 -17.367320 2.038762 1.749138 -2.778457 5.200664 -158.686042 83.050638 23.125961 16.053920 -62.699229 -26.622017 -74.058272 13.874840 -2.582566 -1.069386 10.618550 -19.726087 
349.959015 0.000000 169.976315 0.000000 215.114426 0.000000 -7.547193 90.527319 -0.896066 78.565125 -3.295752 178.162030 165.666730 1.347012 166.729387 -29.131366 3.801900 -1.923193 92.870384 0.074353 -8.911505 21.454561 0.003100 0.000017 133.688801 4.582467 -174.926526 -57.827120 3.394811 -1.766986 78.472522 3.249459 7.915394 21.454550 -0.003094 0.000001 7.058096 -1.180501 -1.453828 4.133898 -2.308818 -2.949061 3.815988 -2.326719 -2.935072 0.972087 1.288818 1.826313 -27.538327 3.407644 0.581192 150.808453 -81.745859 28.012162 9.849694 54.792587 14.366086 -54.669294 -17.307415 2.094027 1.160777 -2.831233 5.459704 -158.704846 83.079550 23.106255 16.828329 -62.290728 -26.075944 -75.539439 12.999851 -2.583865 -1.385417 10.560310 -20.164641 
348.843243 0.000000 170.730654 0.000000 214.977170 0.000000 -7.591186 90.434601 -1.004051 78.478508 -3.360264 178.053790 166.645004 1.576704 166.683786 -28.755645 3.781224 -2.082682 93.072801 0.188547 -8.990336 21.454562 0.003100 0.000018 133.356956 4.091904 -175.321339 -53.475859 3.602828 -0.910935 78.171145 2.550678 7.515552 21.454557 -0.003096 -0.000002 7.075031 -1.140468 -1.522844 4.167986 -2.225874 -3.085948 3.850129 -2.244602 -3.072456 0.688394 1.796081 2.035136 -27.468778 2.766429 1.218088 146.925029 -81.723663 31.935051 9.818578 55.123019 13.491013 -56.396410 -17.144951 2.143848 0.637180 -2.540020 5.863865 -159.219957 83.099754 22.584976 17.915261 -61.840182 -25.867013 -76.771414 12.244582 -2.583893 -1.822942 10.465948 -20.410627 
347.693380 0.000000 171.478831 0.000000 214.835025 0.000000 -7.629434 90.276661 -1.099696 78.468777 -3.426987 178.087475 167.684496 1.808423 166.789186 -28.455289 3.725922 -2.244037 93.392693 0.314968 -9.055628 21.454560 0.003107 0.000018 133.300052 3.687947 -175.697947 -48.844728 3.550292 0.053874 77.984360 1.639189 6.634225 21.454559 -0.003095 -0.000003 7.104510 -1.091090 -1.604152 4.227000 -2.123412 -3.247251 3.909215 -2.143114 -3.234382 0.562529 1.839960 2.306957 -27.505992 2.591695 1.594497 143.358692 -81.548185 35.547016 9.956225 55.422419 12.771162 -58.067825 -16.978511 2.193503 0.018034 -2.038094 6.265726 -159.918688 83.183976 21.877565 19.201651 -61.396177 -25.975429 -77.753886 11.625349 -2.583173 -2.063323 10.119330 -20.425057 
346.511218 0.000000 172.221034 0.000000 214.687923 0.000000 -7.651973 90.079247 -1.177900 78.516154 -3.510163 178.270143 168.759850 2.063597 166.994915 -28.222609 3.699847 -2.395719 93.700345 0.428697 -9.157745 21.454558 0.003113 0.000018 133.570277 3.410509 -175.894815 -43.957870 3.255971 1.099680 77.754463 0.646086 5.639990 21.454557 -0.003093 -0.000003 7.144879 -1.037996 -1.702282 4.307816 -2.012490 -3.442175 3.990124 -2.033367 -3.429982 0.465787 1.718823 2.579611 -27.536509 2.564379 1.865353 140.030006 -81.389346 38.917061 10.180924 55.842371 12.279725 -59.623507 -16.831866 2.241683 -0.561039 -1.609845 6.434546 -160.532966 83.339253 21.254927 20.479995 -61.017513 -26.336747 -78.341927 11.204213 -2.578478 -2.242315 9.728494 -20.341379 
345.298551 0.000000 172.957455 0.000000 214.535800 0.000000 -7.648475 89.869287 -1.237067 78.593360 -3.623791 178.590438 169.850384 2.358380 167.222770 -28.033122 3.761933 -2.511436 93.871876 0.496585 -9.339207 21.454556 0.003113 0.000018 134.207421 3.279849 -175.853994 -38.866681 2.783440 2.210162 77.369936 -0.312433 4.893313 21.454552 -0.003094 -0.000001 7.192771 -0.988480 -1.814329 4.403840 -1.907813 -3.665111 4.086253 -1.930032 -3.653549 0.262150 1.774682 2.772341 -27.438236 2.332645 2.192176 136.609512 -81.391574 42.365575 10.392790 56.497991 12.036690 -61.019478 -16.697423 2.285110 -0.931021 -1.469704 6.246000 -160.824908 83.548368 20.957485 21.599031 -60.751571 -26.923780 -78.399578 11.053888 -2.569611 -2.501254 9.545238 -20.310267 
344.057169 0.000000 173.688283 0.000000 214.378589 0.000000 -7.608599 89.627548 -1.287104 78.696875 -3.801025 179.002714 171.003184 2.709305 167.434110 -27.833419 3.896288 -2.555650 93.980561 0.502652 -9.579685 21.454557 0.003111 0.000018 135.089065 3.301800 -175.970467 -33.897374 2.243154 3.294068 77.182318 -1.246819 4.214422 21.454550 -0.003095 -0.000000 7.241090 -0.952452 -1.923027 4.500941 -1.830023 -3.881806 4.183455 -1.853548 -3.870709 -0.087437 1.972992 2.860157 -27.090066 1.992122 2.497680 133.324016 -81.412760 45.674085 10.599458 57.187584 11.940035 -62.227831 -16.516068 2.319589 -1.067458 -1.380408 6.055631 -160.708037 83.758812 21.073001 22.683283 -60.581180 -27.856384 -77.970338 11.243489 -2.565260 -2.555837 9.577380 -20.381016 
